<mxfile host="app.diagrams.net" agent="Mozilla/5.0 (Windows NT 10.0; Win64; x64) AppleWebKit/537.36 (KHTML, like Gecko) Chrome/133.0.0.0 Safari/537.36" version="26.0.16">
  <diagram name="Página-1" id="V2Iqiuu2jefeKsIMrNsC">
    <mxGraphModel dx="2867" dy="-1040" grid="1" gridSize="10" guides="1" tooltips="1" connect="1" arrows="1" fold="1" page="1" pageScale="1" pageWidth="850" pageHeight="1100" math="0" shadow="0">
      <root>
        <mxCell id="0" />
        <mxCell id="1" parent="0" />
        <mxCell id="dwZYhb1xAHtTYDDChcLW-22" value="Empresa" style="swimlane;childLayout=stackLayout;resizeParent=1;resizeParentMax=0;horizontal=0;startSize=20;horizontalStack=0;html=1;glass=0;fillColor=light-dark(#999999,var(--ge-dark-color, #121212));" parent="1" vertex="1">
          <mxGeometry x="483" y="2710" width="2550" height="1410" as="geometry" />
        </mxCell>
        <mxCell id="dwZYhb1xAHtTYDDChcLW-23" value="Departamento de Desarrollo" style="swimlane;startSize=20;horizontal=0;html=1;" parent="dwZYhb1xAHtTYDDChcLW-22" vertex="1">
          <mxGeometry x="20" width="2530" height="300" as="geometry" />
        </mxCell>
        <mxCell id="Ye0qZoPVvqmFJT9ewQcx-2" value="Análisis" style="rounded=1;whiteSpace=wrap;html=1;" parent="dwZYhb1xAHtTYDDChcLW-23" vertex="1">
          <mxGeometry x="967" y="122" width="80" height="40" as="geometry" />
        </mxCell>
        <mxCell id="Ye0qZoPVvqmFJT9ewQcx-38" style="edgeStyle=orthogonalEdgeStyle;rounded=0;orthogonalLoop=1;jettySize=auto;html=1;exitX=1;exitY=0.5;exitDx=0;exitDy=0;" parent="dwZYhb1xAHtTYDDChcLW-23" source="Ye0qZoPVvqmFJT9ewQcx-12" edge="1">
          <mxGeometry relative="1" as="geometry">
            <mxPoint x="1747" y="142" as="targetPoint" />
          </mxGeometry>
        </mxCell>
        <mxCell id="Ye0qZoPVvqmFJT9ewQcx-12" value="Desarrollo de la herramienta" style="rounded=1;whiteSpace=wrap;html=1;" parent="dwZYhb1xAHtTYDDChcLW-23" vertex="1">
          <mxGeometry x="1525" y="122" width="80" height="40" as="geometry" />
        </mxCell>
        <mxCell id="Ye0qZoPVvqmFJT9ewQcx-13" value="&lt;font style=&quot;color: rgb(153, 153, 153);&quot;&gt;[Presupuesta menor de 10.000€]&lt;/font&gt;" style="text;html=1;align=center;verticalAlign=middle;resizable=0;points=[];autosize=1;strokeColor=none;fillColor=none;" parent="dwZYhb1xAHtTYDDChcLW-23" vertex="1">
          <mxGeometry x="1322" y="110" width="200" height="30" as="geometry" />
        </mxCell>
        <mxCell id="Ye0qZoPVvqmFJT9ewQcx-14" value="&lt;font style=&quot;color: rgb(153, 153, 153);&quot;&gt;[Presupuesta mayor de 10.000€]&lt;/font&gt;" style="text;html=1;align=center;verticalAlign=middle;resizable=0;points=[];autosize=1;strokeColor=none;fillColor=none;" parent="dwZYhb1xAHtTYDDChcLW-23" vertex="1">
          <mxGeometry x="1300" y="162" width="200" height="30" as="geometry" />
        </mxCell>
        <mxCell id="Ye0qZoPVvqmFJT9ewQcx-10" value="Solicita aprobación" style="rounded=1;whiteSpace=wrap;html=1;" parent="dwZYhb1xAHtTYDDChcLW-23" vertex="1">
          <mxGeometry x="1269" y="200" width="80" height="40" as="geometry" />
        </mxCell>
        <mxCell id="Ye0qZoPVvqmFJT9ewQcx-39" value="Envío de herramienta" style="rounded=1;whiteSpace=wrap;html=1;" parent="dwZYhb1xAHtTYDDChcLW-23" vertex="1">
          <mxGeometry x="1749" y="122" width="80" height="40" as="geometry" />
        </mxCell>
        <mxCell id="jrppD0yALq27UF58hP36-47" value="" style="endArrow=classic;html=1;rounded=0;exitX=0.905;exitY=0.297;exitDx=0;exitDy=0;exitPerimeter=0;" edge="1" parent="dwZYhb1xAHtTYDDChcLW-23" source="jrppD0yALq27UF58hP36-41">
          <mxGeometry width="50" height="50" relative="1" as="geometry">
            <mxPoint x="957" y="212" as="sourcePoint" />
            <mxPoint x="1007" y="162" as="targetPoint" />
            <Array as="points">
              <mxPoint x="1007" y="329" />
            </Array>
          </mxGeometry>
        </mxCell>
        <mxCell id="dwZYhb1xAHtTYDDChcLW-24" value="Centro de Operaciones de Securidad (SOC)" style="swimlane;startSize=20;horizontal=0;html=1;glass=0;" parent="dwZYhb1xAHtTYDDChcLW-22" vertex="1">
          <mxGeometry x="20" y="300" width="2530" height="470" as="geometry" />
        </mxCell>
        <mxCell id="B5OsoqnMkMhix60cj1UZ-86" value="Analistas" style="swimlane;horizontal=0;whiteSpace=wrap;html=1;" parent="dwZYhb1xAHtTYDDChcLW-24" vertex="1">
          <mxGeometry x="20" y="220" width="2510" height="250" as="geometry" />
        </mxCell>
        <mxCell id="o_Q9sKbWr-3OxkOPMP5L-8" style="edgeStyle=orthogonalEdgeStyle;rounded=0;orthogonalLoop=1;jettySize=auto;html=1;exitX=1;exitY=0.5;exitDx=0;exitDy=0;entryX=0;entryY=0.5;entryDx=0;entryDy=0;" parent="B5OsoqnMkMhix60cj1UZ-86" source="dwZYhb1xAHtTYDDChcLW-29" target="o_Q9sKbWr-3OxkOPMP5L-4" edge="1">
          <mxGeometry relative="1" as="geometry" />
        </mxCell>
        <mxCell id="dwZYhb1xAHtTYDDChcLW-29" value="Evaluación incidencias" style="rounded=1;whiteSpace=wrap;html=1;" parent="B5OsoqnMkMhix60cj1UZ-86" vertex="1">
          <mxGeometry x="190" y="110" width="80" height="40" as="geometry" />
        </mxCell>
        <mxCell id="o_Q9sKbWr-3OxkOPMP5L-5" value="Registrar empleados implicados" style="rounded=1;whiteSpace=wrap;html=1;" parent="B5OsoqnMkMhix60cj1UZ-86" vertex="1">
          <mxGeometry x="450" y="110" width="80" height="40" as="geometry" />
        </mxCell>
        <mxCell id="o_Q9sKbWr-3OxkOPMP5L-9" style="edgeStyle=orthogonalEdgeStyle;rounded=0;orthogonalLoop=1;jettySize=auto;html=1;exitX=1;exitY=0.5;exitDx=0;exitDy=0;entryX=0;entryY=0.5;entryDx=0;entryDy=0;" parent="B5OsoqnMkMhix60cj1UZ-86" source="o_Q9sKbWr-3OxkOPMP5L-4" target="o_Q9sKbWr-3OxkOPMP5L-5" edge="1">
          <mxGeometry relative="1" as="geometry" />
        </mxCell>
        <mxCell id="o_Q9sKbWr-3OxkOPMP5L-4" value="Asignar tipo de incidencia" style="rounded=1;whiteSpace=wrap;html=1;" parent="B5OsoqnMkMhix60cj1UZ-86" vertex="1">
          <mxGeometry x="320" y="110" width="80" height="40" as="geometry" />
        </mxCell>
        <mxCell id="PkVs66nJgXnaVokK2lV5-21" style="edgeStyle=orthogonalEdgeStyle;rounded=0;orthogonalLoop=1;jettySize=auto;html=1;exitX=1;exitY=0.5;exitDx=0;exitDy=0;entryX=0;entryY=0.5;entryDx=0;entryDy=0;" parent="B5OsoqnMkMhix60cj1UZ-86" source="Ye0qZoPVvqmFJT9ewQcx-57" target="Ye0qZoPVvqmFJT9ewQcx-59" edge="1">
          <mxGeometry relative="1" as="geometry" />
        </mxCell>
        <mxCell id="Ye0qZoPVvqmFJT9ewQcx-57" value="Prueba de uso incial" style="rounded=1;whiteSpace=wrap;html=1;" parent="B5OsoqnMkMhix60cj1UZ-86" vertex="1">
          <mxGeometry x="1729" y="110" width="80" height="40" as="geometry" />
        </mxCell>
        <mxCell id="Ye0qZoPVvqmFJT9ewQcx-59" value="Documentación de uso interno" style="rounded=0;whiteSpace=wrap;html=1;" parent="B5OsoqnMkMhix60cj1UZ-86" vertex="1">
          <mxGeometry x="1894" y="110" width="90" height="40" as="geometry" />
        </mxCell>
        <mxCell id="dwZYhb1xAHtTYDDChcLW-31" value="L.I" style="rounded=0;whiteSpace=wrap;html=1;" parent="B5OsoqnMkMhix60cj1UZ-86" vertex="1">
          <mxGeometry x="462" y="90" width="23" height="20" as="geometry" />
        </mxCell>
        <mxCell id="jrppD0yALq27UF58hP36-2" value="L.E.I" style="rounded=0;whiteSpace=wrap;html=1;" vertex="1" parent="B5OsoqnMkMhix60cj1UZ-86">
          <mxGeometry x="494" y="90" width="33" height="20" as="geometry" />
        </mxCell>
        <mxCell id="jrppD0yALq27UF58hP36-5" value="&lt;font style=&quot;color: rgb(153, 153, 153); font-size: 9px;&quot;&gt;Listado de Incidencias&lt;/font&gt;" style="text;html=1;align=center;verticalAlign=middle;resizable=0;points=[];autosize=1;strokeColor=none;fillColor=none;" vertex="1" parent="B5OsoqnMkMhix60cj1UZ-86">
          <mxGeometry x="384" y="63" width="110" height="30" as="geometry" />
        </mxCell>
        <mxCell id="jrppD0yALq27UF58hP36-6" value="&lt;font style=&quot;color: rgb(153, 153, 153); font-size: 9px;&quot;&gt;Listado de Empleados Involucrados&lt;/font&gt;" style="text;html=1;align=center;verticalAlign=middle;resizable=0;points=[];autosize=1;strokeColor=none;fillColor=none;" vertex="1" parent="B5OsoqnMkMhix60cj1UZ-86">
          <mxGeometry x="487" y="65" width="170" height="30" as="geometry" />
        </mxCell>
        <mxCell id="o_Q9sKbWr-3OxkOPMP5L-3" style="edgeStyle=orthogonalEdgeStyle;rounded=0;orthogonalLoop=1;jettySize=auto;html=1;exitX=0.5;exitY=1;exitDx=0;exitDy=0;entryX=0;entryY=0.5;entryDx=0;entryDy=0;" parent="dwZYhb1xAHtTYDDChcLW-24" source="o_Q9sKbWr-3OxkOPMP5L-1" target="dwZYhb1xAHtTYDDChcLW-29" edge="1">
          <mxGeometry relative="1" as="geometry" />
        </mxCell>
        <mxCell id="B5OsoqnMkMhix60cj1UZ-84" value="Gerente" style="swimlane;horizontal=0;whiteSpace=wrap;html=1;startSize=23;" parent="dwZYhb1xAHtTYDDChcLW-24" vertex="1">
          <mxGeometry x="21" width="2510" height="220" as="geometry" />
        </mxCell>
        <mxCell id="o_Q9sKbWr-3OxkOPMP5L-2" style="edgeStyle=orthogonalEdgeStyle;rounded=0;orthogonalLoop=1;jettySize=auto;html=1;exitX=1;exitY=0.5;exitDx=0;exitDy=0;entryX=0;entryY=0.5;entryDx=0;entryDy=0;" parent="B5OsoqnMkMhix60cj1UZ-84" source="dwZYhb1xAHtTYDDChcLW-26" target="o_Q9sKbWr-3OxkOPMP5L-1" edge="1">
          <mxGeometry relative="1" as="geometry" />
        </mxCell>
        <mxCell id="dwZYhb1xAHtTYDDChcLW-26" value="" style="ellipse;fillColor=strokeColor;html=1;" parent="B5OsoqnMkMhix60cj1UZ-84" vertex="1">
          <mxGeometry x="50" y="80" width="20" height="20" as="geometry" />
        </mxCell>
        <mxCell id="o_Q9sKbWr-3OxkOPMP5L-1" value="Solicitud" style="rounded=1;whiteSpace=wrap;html=1;" parent="B5OsoqnMkMhix60cj1UZ-84" vertex="1">
          <mxGeometry x="110" y="70" width="80" height="40" as="geometry" />
        </mxCell>
        <mxCell id="o_Q9sKbWr-3OxkOPMP5L-21" style="edgeStyle=orthogonalEdgeStyle;rounded=0;orthogonalLoop=1;jettySize=auto;html=1;exitX=1;exitY=0.5;exitDx=0;exitDy=0;entryX=0;entryY=0.5;entryDx=0;entryDy=0;" parent="B5OsoqnMkMhix60cj1UZ-84" source="dwZYhb1xAHtTYDDChcLW-33" target="dwZYhb1xAHtTYDDChcLW-36" edge="1">
          <mxGeometry relative="1" as="geometry" />
        </mxCell>
        <mxCell id="dwZYhb1xAHtTYDDChcLW-33" value="Análisis de mejora&lt;span style=&quot;color: rgba(0, 0, 0, 0); font-family: monospace; font-size: 0px; text-align: start; text-wrap-mode: nowrap;&quot;&gt;%3CmxGraphModel%3E%3Croot%3E%3CmxCell%20id%3D%220%22%2F%3E%3CmxCell%20id%3D%221%22%20parent%3D%220%22%2F%3E%3CmxCell%20id%3D%222%22%20value%3D%22evaluaci%C3%B3n%20incidencias%22%20style%3D%22rounded%3D1%3BwhiteSpace%3Dwrap%3Bhtml%3D1%3B%22%20vertex%3D%221%22%20parent%3D%221%22%3E%3CmxGeometry%20x%3D%22530%22%20y%3D%223270%22%20width%3D%2280%22%20height%3D%2240%22%20as%3D%22geometry%22%2F%3E%3C%2FmxCell%3E%3C%2Froot%3E%3C%2FmxGraphModel%3E&lt;/span&gt;" style="rounded=1;whiteSpace=wrap;html=1;" parent="B5OsoqnMkMhix60cj1UZ-84" vertex="1">
          <mxGeometry x="449" y="102" width="80" height="40" as="geometry" />
        </mxCell>
        <mxCell id="QzcsEoRw-TG-6qMymVgF-25" style="edgeStyle=orthogonalEdgeStyle;rounded=0;orthogonalLoop=1;jettySize=auto;html=1;exitX=0.5;exitY=1;exitDx=0;exitDy=0;entryX=0;entryY=0.5;entryDx=0;entryDy=0;" parent="B5OsoqnMkMhix60cj1UZ-84" source="dwZYhb1xAHtTYDDChcLW-36" target="QzcsEoRw-TG-6qMymVgF-24" edge="1">
          <mxGeometry relative="1" as="geometry" />
        </mxCell>
        <mxCell id="QzcsEoRw-TG-6qMymVgF-26" style="edgeStyle=orthogonalEdgeStyle;rounded=0;orthogonalLoop=1;jettySize=auto;html=1;exitX=0.5;exitY=0;exitDx=0;exitDy=0;entryX=0;entryY=0.5;entryDx=0;entryDy=0;" parent="B5OsoqnMkMhix60cj1UZ-84" source="dwZYhb1xAHtTYDDChcLW-36" target="o_Q9sKbWr-3OxkOPMP5L-20" edge="1">
          <mxGeometry relative="1" as="geometry" />
        </mxCell>
        <mxCell id="dwZYhb1xAHtTYDDChcLW-36" value="" style="rhombus;whiteSpace=wrap;html=1;" parent="B5OsoqnMkMhix60cj1UZ-84" vertex="1">
          <mxGeometry x="565" y="112" width="40" height="20" as="geometry" />
        </mxCell>
        <mxCell id="QzcsEoRw-TG-6qMymVgF-29" style="edgeStyle=orthogonalEdgeStyle;rounded=0;orthogonalLoop=1;jettySize=auto;html=1;exitX=1;exitY=0.5;exitDx=0;exitDy=0;entryX=0;entryY=0.5;entryDx=0;entryDy=0;" parent="B5OsoqnMkMhix60cj1UZ-84" source="o_Q9sKbWr-3OxkOPMP5L-20" target="QzcsEoRw-TG-6qMymVgF-28" edge="1">
          <mxGeometry relative="1" as="geometry" />
        </mxCell>
        <mxCell id="o_Q9sKbWr-3OxkOPMP5L-20" value="No marca para revisión" style="rounded=1;whiteSpace=wrap;html=1;" parent="B5OsoqnMkMhix60cj1UZ-84" vertex="1">
          <mxGeometry x="625" y="61" width="80" height="40" as="geometry" />
        </mxCell>
        <mxCell id="o_Q9sKbWr-3OxkOPMP5L-19" value="Automatizar un proceso" style="rounded=1;whiteSpace=wrap;html=1;" parent="B5OsoqnMkMhix60cj1UZ-84" vertex="1">
          <mxGeometry x="790" y="25" width="80" height="40" as="geometry" />
        </mxCell>
        <mxCell id="dwZYhb1xAHtTYDDChcLW-51" value="Enviar de listado de empleados actualizado" style="rounded=1;whiteSpace=wrap;html=1;" parent="B5OsoqnMkMhix60cj1UZ-84" vertex="1">
          <mxGeometry x="1236" y="120" width="120" height="50" as="geometry" />
        </mxCell>
        <mxCell id="Ye0qZoPVvqmFJT9ewQcx-37" value="&lt;font style=&quot;color: rgb(153, 153, 153);&quot;&gt;[Aprueba]&amp;nbsp;&lt;/font&gt;" style="text;html=1;align=center;verticalAlign=middle;resizable=0;points=[];autosize=1;strokeColor=none;fillColor=none;" parent="B5OsoqnMkMhix60cj1UZ-84" vertex="1">
          <mxGeometry x="1537" y="13" width="80" height="30" as="geometry" />
        </mxCell>
        <mxCell id="PkVs66nJgXnaVokK2lV5-17" style="edgeStyle=orthogonalEdgeStyle;rounded=0;orthogonalLoop=1;jettySize=auto;html=1;exitX=1;exitY=0.5;exitDx=0;exitDy=0;entryX=0.5;entryY=1;entryDx=0;entryDy=0;" parent="B5OsoqnMkMhix60cj1UZ-84" source="Ye0qZoPVvqmFJT9ewQcx-20" target="PkVs66nJgXnaVokK2lV5-14" edge="1">
          <mxGeometry relative="1" as="geometry" />
        </mxCell>
        <mxCell id="Ye0qZoPVvqmFJT9ewQcx-20" value="" style="rhombus;whiteSpace=wrap;html=1;" parent="B5OsoqnMkMhix60cj1UZ-84" vertex="1">
          <mxGeometry x="1524" y="50" width="40" height="20" as="geometry" />
        </mxCell>
        <mxCell id="Ye0qZoPVvqmFJT9ewQcx-54" style="edgeStyle=orthogonalEdgeStyle;rounded=0;orthogonalLoop=1;jettySize=auto;html=1;exitX=1;exitY=0.5;exitDx=0;exitDy=0;entryX=0;entryY=0.5;entryDx=0;entryDy=0;" parent="B5OsoqnMkMhix60cj1UZ-84" source="Ye0qZoPVvqmFJT9ewQcx-50" target="Ye0qZoPVvqmFJT9ewQcx-20" edge="1">
          <mxGeometry relative="1" as="geometry" />
        </mxCell>
        <mxCell id="Ye0qZoPVvqmFJT9ewQcx-50" value="Analiza aprobación" style="rounded=1;whiteSpace=wrap;html=1;" parent="B5OsoqnMkMhix60cj1UZ-84" vertex="1">
          <mxGeometry x="1248" y="40" width="80" height="40" as="geometry" />
        </mxCell>
        <mxCell id="PkVs66nJgXnaVokK2lV5-19" style="edgeStyle=orthogonalEdgeStyle;rounded=0;orthogonalLoop=1;jettySize=auto;html=1;exitX=1;exitY=0.5;exitDx=0;exitDy=0;entryX=1;entryY=0.5;entryDx=0;entryDy=0;" parent="B5OsoqnMkMhix60cj1UZ-84" source="QzcsEoRw-TG-6qMymVgF-24" target="PkVs66nJgXnaVokK2lV5-14" edge="1">
          <mxGeometry relative="1" as="geometry" />
        </mxCell>
        <mxCell id="QzcsEoRw-TG-6qMymVgF-24" value="Marca para revisión" style="rounded=1;whiteSpace=wrap;html=1;" parent="B5OsoqnMkMhix60cj1UZ-84" vertex="1">
          <mxGeometry x="625" y="165" width="80" height="40" as="geometry" />
        </mxCell>
        <mxCell id="jrppD0yALq27UF58hP36-27" style="edgeStyle=orthogonalEdgeStyle;rounded=0;orthogonalLoop=1;jettySize=auto;html=1;exitX=1;exitY=0.5;exitDx=0;exitDy=0;entryX=0;entryY=0.5;entryDx=0;entryDy=0;" edge="1" parent="B5OsoqnMkMhix60cj1UZ-84" source="o_Q9sKbWr-3OxkOPMP5L-18" target="dwZYhb1xAHtTYDDChcLW-51">
          <mxGeometry relative="1" as="geometry" />
        </mxCell>
        <mxCell id="o_Q9sKbWr-3OxkOPMP5L-18" value="Dar formación" style="rounded=1;whiteSpace=wrap;html=1;" parent="B5OsoqnMkMhix60cj1UZ-84" vertex="1">
          <mxGeometry x="1078" y="125" width="80" height="40" as="geometry" />
        </mxCell>
        <mxCell id="jrppD0yALq27UF58hP36-8" style="edgeStyle=orthogonalEdgeStyle;rounded=0;orthogonalLoop=1;jettySize=auto;html=1;exitX=0.5;exitY=1;exitDx=0;exitDy=0;entryX=0;entryY=0.5;entryDx=0;entryDy=0;" edge="1" parent="B5OsoqnMkMhix60cj1UZ-84" source="QzcsEoRw-TG-6qMymVgF-28" target="jrppD0yALq27UF58hP36-7">
          <mxGeometry relative="1" as="geometry" />
        </mxCell>
        <mxCell id="jrppD0yALq27UF58hP36-31" style="edgeStyle=orthogonalEdgeStyle;rounded=0;orthogonalLoop=1;jettySize=auto;html=1;exitX=0.5;exitY=0;exitDx=0;exitDy=0;entryX=0;entryY=0.5;entryDx=0;entryDy=0;" edge="1" parent="B5OsoqnMkMhix60cj1UZ-84" source="QzcsEoRw-TG-6qMymVgF-28" target="o_Q9sKbWr-3OxkOPMP5L-19">
          <mxGeometry relative="1" as="geometry" />
        </mxCell>
        <mxCell id="QzcsEoRw-TG-6qMymVgF-28" value="" style="rhombus;whiteSpace=wrap;html=1;" parent="B5OsoqnMkMhix60cj1UZ-84" vertex="1">
          <mxGeometry x="730" y="71" width="40" height="20" as="geometry" />
        </mxCell>
        <mxCell id="PkVs66nJgXnaVokK2lV5-7" value="Análisis de incidencias" style="rounded=1;whiteSpace=wrap;html=1;" parent="B5OsoqnMkMhix60cj1UZ-84" vertex="1">
          <mxGeometry x="1898" y="41" width="80" height="40" as="geometry" />
        </mxCell>
        <mxCell id="PkVs66nJgXnaVokK2lV5-18" style="edgeStyle=orthogonalEdgeStyle;rounded=0;orthogonalLoop=1;jettySize=auto;html=1;exitX=0.5;exitY=0;exitDx=0;exitDy=0;entryX=0;entryY=0.5;entryDx=0;entryDy=0;" parent="B5OsoqnMkMhix60cj1UZ-84" source="PkVs66nJgXnaVokK2lV5-14" target="PkVs66nJgXnaVokK2lV5-7" edge="1">
          <mxGeometry relative="1" as="geometry" />
        </mxCell>
        <mxCell id="PkVs66nJgXnaVokK2lV5-14" value="" style="shape=collate;html=1;rotation=90;" parent="B5OsoqnMkMhix60cj1UZ-84" vertex="1">
          <mxGeometry x="1646" y="40" width="40" height="40" as="geometry" />
        </mxCell>
        <mxCell id="PkVs66nJgXnaVokK2lV5-22" value="&lt;font style=&quot;color: rgb(0, 0, 0);&quot;&gt;30 días&lt;/font&gt;" style="text;html=1;align=center;verticalAlign=middle;resizable=0;points=[];autosize=1;strokeColor=none;fillColor=none;" parent="B5OsoqnMkMhix60cj1UZ-84" vertex="1">
          <mxGeometry x="1636" y="10" width="60" height="30" as="geometry" />
        </mxCell>
        <mxCell id="PkVs66nJgXnaVokK2lV5-23" value="&lt;font style=&quot;color: rgb(0, 0, 0);&quot;&gt;30 días&lt;/font&gt;" style="text;html=1;align=center;verticalAlign=middle;resizable=0;points=[];autosize=1;strokeColor=none;fillColor=none;" parent="B5OsoqnMkMhix60cj1UZ-84" vertex="1">
          <mxGeometry x="1961" y="135" width="60" height="30" as="geometry" />
        </mxCell>
        <mxCell id="jrppD0yALq27UF58hP36-3" value="L.I" style="rounded=0;whiteSpace=wrap;html=1;" vertex="1" parent="B5OsoqnMkMhix60cj1UZ-84">
          <mxGeometry x="460" y="142" width="23" height="20" as="geometry" />
        </mxCell>
        <mxCell id="jrppD0yALq27UF58hP36-4" value="L.E.I" style="rounded=0;whiteSpace=wrap;html=1;" vertex="1" parent="B5OsoqnMkMhix60cj1UZ-84">
          <mxGeometry x="494" y="142" width="33" height="20" as="geometry" />
        </mxCell>
        <mxCell id="jrppD0yALq27UF58hP36-25" style="edgeStyle=orthogonalEdgeStyle;rounded=0;orthogonalLoop=1;jettySize=auto;html=1;exitX=1;exitY=0.5;exitDx=0;exitDy=0;entryX=0;entryY=0.5;entryDx=0;entryDy=0;" edge="1" parent="B5OsoqnMkMhix60cj1UZ-84" source="jrppD0yALq27UF58hP36-7" target="o_Q9sKbWr-3OxkOPMP5L-18">
          <mxGeometry relative="1" as="geometry" />
        </mxCell>
        <mxCell id="jrppD0yALq27UF58hP36-7" value="No Automatizar" style="rounded=1;whiteSpace=wrap;html=1;" vertex="1" parent="B5OsoqnMkMhix60cj1UZ-84">
          <mxGeometry x="790" y="125" width="80" height="40" as="geometry" />
        </mxCell>
        <mxCell id="jrppD0yALq27UF58hP36-20" style="edgeStyle=orthogonalEdgeStyle;rounded=0;orthogonalLoop=1;jettySize=auto;html=1;exitX=0.5;exitY=0;exitDx=0;exitDy=0;entryX=0;entryY=0.5;entryDx=0;entryDy=0;" edge="1" parent="B5OsoqnMkMhix60cj1UZ-84" source="jrppD0yALq27UF58hP36-9" target="jrppD0yALq27UF58hP36-15">
          <mxGeometry relative="1" as="geometry" />
        </mxCell>
        <mxCell id="jrppD0yALq27UF58hP36-32" style="edgeStyle=orthogonalEdgeStyle;rounded=0;orthogonalLoop=1;jettySize=auto;html=1;exitX=0.5;exitY=1;exitDx=0;exitDy=0;entryX=0.5;entryY=0;entryDx=0;entryDy=0;" edge="1" parent="B5OsoqnMkMhix60cj1UZ-84" source="jrppD0yALq27UF58hP36-9" target="o_Q9sKbWr-3OxkOPMP5L-18">
          <mxGeometry relative="1" as="geometry" />
        </mxCell>
        <mxCell id="jrppD0yALq27UF58hP36-9" value="" style="rhombus;whiteSpace=wrap;html=1;" vertex="1" parent="B5OsoqnMkMhix60cj1UZ-84">
          <mxGeometry x="1003" y="65" width="40" height="20" as="geometry" />
        </mxCell>
        <mxCell id="jrppD0yALq27UF58hP36-49" style="edgeStyle=orthogonalEdgeStyle;rounded=0;orthogonalLoop=1;jettySize=auto;html=1;exitX=1;exitY=0.5;exitDx=0;exitDy=0;" edge="1" parent="B5OsoqnMkMhix60cj1UZ-84" source="jrppD0yALq27UF58hP36-15">
          <mxGeometry relative="1" as="geometry">
            <mxPoint x="1176" y="44.695652173913004" as="targetPoint" />
          </mxGeometry>
        </mxCell>
        <mxCell id="jrppD0yALq27UF58hP36-15" value="No Dar formación" style="rounded=1;whiteSpace=wrap;html=1;" vertex="1" parent="B5OsoqnMkMhix60cj1UZ-84">
          <mxGeometry x="1063" y="25" width="80" height="40" as="geometry" />
        </mxCell>
        <mxCell id="jrppD0yALq27UF58hP36-41" value="" style="html=1;points=[];perimeter=orthogonalPerimeter;fillColor=strokeColor;" vertex="1" parent="B5OsoqnMkMhix60cj1UZ-84">
          <mxGeometry x="916" y="4.995652173913186" width="5" height="80" as="geometry" />
        </mxCell>
        <mxCell id="jrppD0yALq27UF58hP36-40" style="edgeStyle=orthogonalEdgeStyle;rounded=0;orthogonalLoop=1;jettySize=auto;html=1;exitX=1;exitY=0.5;exitDx=0;exitDy=0;" edge="1" parent="B5OsoqnMkMhix60cj1UZ-84" source="o_Q9sKbWr-3OxkOPMP5L-19" target="jrppD0yALq27UF58hP36-41">
          <mxGeometry relative="1" as="geometry">
            <mxPoint x="916" y="44.695652173913004" as="targetPoint" />
          </mxGeometry>
        </mxCell>
        <mxCell id="jrppD0yALq27UF58hP36-48" value="" style="endArrow=classic;html=1;rounded=0;exitX=0.953;exitY=0.871;exitDx=0;exitDy=0;exitPerimeter=0;entryX=0;entryY=0.5;entryDx=0;entryDy=0;" edge="1" parent="B5OsoqnMkMhix60cj1UZ-84" source="jrppD0yALq27UF58hP36-41" target="jrppD0yALq27UF58hP36-9">
          <mxGeometry width="50" height="50" relative="1" as="geometry">
            <mxPoint x="1046" y="130" as="sourcePoint" />
            <mxPoint x="1096" y="80" as="targetPoint" />
          </mxGeometry>
        </mxCell>
        <mxCell id="jrppD0yALq27UF58hP36-50" value="" style="shape=sumEllipse;perimeter=ellipsePerimeter;html=1;backgroundOutline=1;" vertex="1" parent="B5OsoqnMkMhix60cj1UZ-84">
          <mxGeometry x="1176" y="30" width="30" height="30" as="geometry" />
        </mxCell>
        <mxCell id="o_Q9sKbWr-3OxkOPMP5L-27" style="edgeStyle=orthogonalEdgeStyle;rounded=0;orthogonalLoop=1;jettySize=auto;html=1;exitX=0.5;exitY=1;exitDx=0;exitDy=0;entryX=0.5;entryY=0;entryDx=0;entryDy=0;" parent="dwZYhb1xAHtTYDDChcLW-24" source="dwZYhb1xAHtTYDDChcLW-51" edge="1">
          <mxGeometry relative="1" as="geometry">
            <mxPoint x="1090" y="470" as="targetPoint" />
          </mxGeometry>
        </mxCell>
        <mxCell id="PkVs66nJgXnaVokK2lV5-8" style="edgeStyle=orthogonalEdgeStyle;rounded=0;orthogonalLoop=1;jettySize=auto;html=1;exitX=0.5;exitY=0;exitDx=0;exitDy=0;entryX=0.5;entryY=1;entryDx=0;entryDy=0;" parent="dwZYhb1xAHtTYDDChcLW-24" source="PkVs66nJgXnaVokK2lV5-11" target="PkVs66nJgXnaVokK2lV5-7" edge="1">
          <mxGeometry relative="1" as="geometry" />
        </mxCell>
        <mxCell id="PkVs66nJgXnaVokK2lV5-11" value="" style="shape=collate;html=1;" parent="dwZYhb1xAHtTYDDChcLW-24" vertex="1">
          <mxGeometry x="1939" y="130" width="40" height="40" as="geometry" />
        </mxCell>
        <mxCell id="PkVs66nJgXnaVokK2lV5-12" value="" style="edgeStyle=orthogonalEdgeStyle;rounded=0;orthogonalLoop=1;jettySize=auto;html=1;exitX=0.5;exitY=0;exitDx=0;exitDy=0;entryX=0.5;entryY=1;entryDx=0;entryDy=0;" parent="dwZYhb1xAHtTYDDChcLW-24" source="Ye0qZoPVvqmFJT9ewQcx-59" target="PkVs66nJgXnaVokK2lV5-11" edge="1">
          <mxGeometry relative="1" as="geometry">
            <mxPoint x="2460" y="3320" as="sourcePoint" />
            <mxPoint x="2460" y="3087" as="targetPoint" />
          </mxGeometry>
        </mxCell>
        <mxCell id="jrppD0yALq27UF58hP36-39" style="edgeStyle=orthogonalEdgeStyle;rounded=0;orthogonalLoop=1;jettySize=auto;html=1;exitX=0.5;exitY=0;exitDx=0;exitDy=0;entryX=0.5;entryY=1;entryDx=0;entryDy=0;" edge="1" parent="dwZYhb1xAHtTYDDChcLW-24" source="o_Q9sKbWr-3OxkOPMP5L-5" target="dwZYhb1xAHtTYDDChcLW-33">
          <mxGeometry relative="1" as="geometry" />
        </mxCell>
        <mxCell id="dwZYhb1xAHtTYDDChcLW-34" value="Departamento de Recursos Humanos" style="swimlane;startSize=20;horizontal=0;html=1;" parent="dwZYhb1xAHtTYDDChcLW-22" vertex="1">
          <mxGeometry x="20" y="770" width="2530" height="320" as="geometry" />
        </mxCell>
        <mxCell id="dwZYhb1xAHtTYDDChcLW-45" value="Envio de mensaje informativo a los empleados" style="rounded=1;whiteSpace=wrap;html=1;" parent="dwZYhb1xAHtTYDDChcLW-34" vertex="1">
          <mxGeometry x="1342" y="90" width="100" height="40" as="geometry" />
        </mxCell>
        <mxCell id="o_Q9sKbWr-3OxkOPMP5L-30" style="edgeStyle=orthogonalEdgeStyle;rounded=0;orthogonalLoop=1;jettySize=auto;html=1;exitX=1;exitY=0.5;exitDx=0;exitDy=0;entryX=0;entryY=0.5;entryDx=0;entryDy=0;" parent="dwZYhb1xAHtTYDDChcLW-34" source="dwZYhb1xAHtTYDDChcLW-58" target="dwZYhb1xAHtTYDDChcLW-45" edge="1">
          <mxGeometry relative="1" as="geometry" />
        </mxCell>
        <mxCell id="dwZYhb1xAHtTYDDChcLW-58" value="&lt;font style=&quot;font-size: 11px;&quot;&gt;Consultar y contratar cursos acordes&lt;/font&gt;" style="rounded=1;whiteSpace=wrap;html=1;" parent="dwZYhb1xAHtTYDDChcLW-34" vertex="1">
          <mxGeometry x="1202" y="90" width="80" height="40" as="geometry" />
        </mxCell>
        <mxCell id="o_Q9sKbWr-3OxkOPMP5L-29" style="edgeStyle=orthogonalEdgeStyle;rounded=0;orthogonalLoop=1;jettySize=auto;html=1;exitX=1;exitY=0.5;exitDx=0;exitDy=0;entryX=0;entryY=0.5;entryDx=0;entryDy=0;" parent="dwZYhb1xAHtTYDDChcLW-34" source="dwZYhb1xAHtTYDDChcLW-44" target="dwZYhb1xAHtTYDDChcLW-58" edge="1">
          <mxGeometry relative="1" as="geometry" />
        </mxCell>
        <mxCell id="dwZYhb1xAHtTYDDChcLW-44" value="Recabar datos de los empleados" style="rounded=1;whiteSpace=wrap;html=1;" parent="dwZYhb1xAHtTYDDChcLW-34" vertex="1">
          <mxGeometry x="1052" y="90" width="80" height="40" as="geometry" />
        </mxCell>
        <mxCell id="dwZYhb1xAHtTYDDChcLW-71" value="Iniciar formación" style="rounded=1;whiteSpace=wrap;html=1;" parent="dwZYhb1xAHtTYDDChcLW-34" vertex="1">
          <mxGeometry x="1352" y="470" width="80" height="40" as="geometry" />
        </mxCell>
        <mxCell id="PkVs66nJgXnaVokK2lV5-20" style="edgeStyle=orthogonalEdgeStyle;rounded=0;orthogonalLoop=1;jettySize=auto;html=1;exitX=0.5;exitY=1;exitDx=0;exitDy=0;entryX=0.5;entryY=0;entryDx=0;entryDy=0;" parent="dwZYhb1xAHtTYDDChcLW-34" source="o_Q9sKbWr-3OxkOPMP5L-32" target="dwZYhb1xAHtTYDDChcLW-44" edge="1">
          <mxGeometry relative="1" as="geometry" />
        </mxCell>
        <mxCell id="o_Q9sKbWr-3OxkOPMP5L-32" value="Solicitud de formación" style="rounded=0;whiteSpace=wrap;html=1;" parent="dwZYhb1xAHtTYDDChcLW-34" vertex="1">
          <mxGeometry x="1047" y="-20" width="90" height="40" as="geometry" />
        </mxCell>
        <mxCell id="dwZYhb1xAHtTYDDChcLW-61" value="Empleados" style="swimlane;startSize=20;horizontal=0;html=1;" parent="dwZYhb1xAHtTYDDChcLW-22" vertex="1">
          <mxGeometry x="20" y="1090" width="2530" height="320" as="geometry" />
        </mxCell>
        <mxCell id="o_Q9sKbWr-3OxkOPMP5L-35" value="Mensaje informativo" style="rounded=0;whiteSpace=wrap;html=1;" parent="dwZYhb1xAHtTYDDChcLW-61" vertex="1">
          <mxGeometry x="1347" y="-20" width="90" height="40" as="geometry" />
        </mxCell>
        <mxCell id="PkVs66nJgXnaVokK2lV5-3" value="" style="shape=sumEllipse;perimeter=ellipsePerimeter;html=1;backgroundOutline=1;" parent="dwZYhb1xAHtTYDDChcLW-61" vertex="1">
          <mxGeometry x="1509" y="155" width="30" height="30" as="geometry" />
        </mxCell>
        <mxCell id="Ye0qZoPVvqmFJT9ewQcx-51" style="edgeStyle=orthogonalEdgeStyle;rounded=0;orthogonalLoop=1;jettySize=auto;html=1;exitX=0.5;exitY=1;exitDx=0;exitDy=0;entryX=0.5;entryY=0;entryDx=0;entryDy=0;" parent="dwZYhb1xAHtTYDDChcLW-22" source="Ye0qZoPVvqmFJT9ewQcx-10" target="Ye0qZoPVvqmFJT9ewQcx-50" edge="1">
          <mxGeometry relative="1" as="geometry" />
        </mxCell>
        <mxCell id="Ye0qZoPVvqmFJT9ewQcx-52" style="edgeStyle=orthogonalEdgeStyle;rounded=0;orthogonalLoop=1;jettySize=auto;html=1;exitX=0.5;exitY=0;exitDx=0;exitDy=0;entryX=0.5;entryY=1;entryDx=0;entryDy=0;" parent="dwZYhb1xAHtTYDDChcLW-22" source="Ye0qZoPVvqmFJT9ewQcx-20" target="Ye0qZoPVvqmFJT9ewQcx-12" edge="1">
          <mxGeometry relative="1" as="geometry" />
        </mxCell>
        <mxCell id="PkVs66nJgXnaVokK2lV5-4" style="edgeStyle=orthogonalEdgeStyle;rounded=0;orthogonalLoop=1;jettySize=auto;html=1;exitX=1;exitY=0.5;exitDx=0;exitDy=0;entryX=0;entryY=0.5;entryDx=0;entryDy=0;" parent="dwZYhb1xAHtTYDDChcLW-22" source="dwZYhb1xAHtTYDDChcLW-71" target="PkVs66nJgXnaVokK2lV5-3" edge="1">
          <mxGeometry relative="1" as="geometry" />
        </mxCell>
        <mxCell id="jrppD0yALq27UF58hP36-51" style="edgeStyle=orthogonalEdgeStyle;rounded=0;orthogonalLoop=1;jettySize=auto;html=1;exitX=0.5;exitY=1;exitDx=0;exitDy=0;entryX=0.5;entryY=0;entryDx=0;entryDy=0;" edge="1" parent="dwZYhb1xAHtTYDDChcLW-22" source="dwZYhb1xAHtTYDDChcLW-45" target="o_Q9sKbWr-3OxkOPMP5L-35">
          <mxGeometry relative="1" as="geometry" />
        </mxCell>
        <mxCell id="jrppD0yALq27UF58hP36-52" style="edgeStyle=orthogonalEdgeStyle;rounded=0;orthogonalLoop=1;jettySize=auto;html=1;exitX=0.5;exitY=1;exitDx=0;exitDy=0;entryX=0.5;entryY=0;entryDx=0;entryDy=0;" edge="1" parent="dwZYhb1xAHtTYDDChcLW-22" source="o_Q9sKbWr-3OxkOPMP5L-35" target="dwZYhb1xAHtTYDDChcLW-71">
          <mxGeometry relative="1" as="geometry" />
        </mxCell>
        <mxCell id="Ye0qZoPVvqmFJT9ewQcx-27" style="edgeStyle=orthogonalEdgeStyle;rounded=0;orthogonalLoop=1;jettySize=auto;html=1;exitX=1;exitY=0.5;exitDx=0;exitDy=0;entryX=0;entryY=0.5;entryDx=0;entryDy=0;" parent="1" source="Ye0qZoPVvqmFJT9ewQcx-19" target="Ye0qZoPVvqmFJT9ewQcx-12" edge="1">
          <mxGeometry relative="1" as="geometry" />
        </mxCell>
        <mxCell id="Ye0qZoPVvqmFJT9ewQcx-28" style="edgeStyle=orthogonalEdgeStyle;rounded=0;orthogonalLoop=1;jettySize=auto;html=1;exitX=0.5;exitY=1;exitDx=0;exitDy=0;entryX=0.5;entryY=0;entryDx=0;entryDy=0;" parent="1" source="Ye0qZoPVvqmFJT9ewQcx-19" target="Ye0qZoPVvqmFJT9ewQcx-10" edge="1">
          <mxGeometry relative="1" as="geometry" />
        </mxCell>
        <mxCell id="Ye0qZoPVvqmFJT9ewQcx-19" value="" style="rhombus;whiteSpace=wrap;html=1;" parent="1" vertex="1">
          <mxGeometry x="1792" y="2842" width="40" height="20" as="geometry" />
        </mxCell>
        <mxCell id="Ye0qZoPVvqmFJT9ewQcx-26" style="edgeStyle=orthogonalEdgeStyle;rounded=0;orthogonalLoop=1;jettySize=auto;html=1;exitX=1;exitY=0.5;exitDx=0;exitDy=0;entryX=0;entryY=0.5;entryDx=0;entryDy=0;" parent="1" source="Ye0qZoPVvqmFJT9ewQcx-2" target="Ye0qZoPVvqmFJT9ewQcx-19" edge="1">
          <mxGeometry relative="1" as="geometry" />
        </mxCell>
        <mxCell id="Ye0qZoPVvqmFJT9ewQcx-56" style="edgeStyle=orthogonalEdgeStyle;rounded=0;orthogonalLoop=1;jettySize=auto;html=1;exitX=0.5;exitY=1;exitDx=0;exitDy=0;entryX=0.5;entryY=0;entryDx=0;entryDy=0;" parent="1" source="Ye0qZoPVvqmFJT9ewQcx-45" target="Ye0qZoPVvqmFJT9ewQcx-57" edge="1">
          <mxGeometry relative="1" as="geometry">
            <mxPoint x="2290.1428571428573" y="3320" as="targetPoint" />
          </mxGeometry>
        </mxCell>
        <mxCell id="Ye0qZoPVvqmFJT9ewQcx-45" value="Herramienta" style="rounded=0;whiteSpace=wrap;html=1;" parent="1" vertex="1">
          <mxGeometry x="2247" y="3210" width="90" height="40" as="geometry" />
        </mxCell>
        <mxCell id="PkVs66nJgXnaVokK2lV5-25" value="" style="ellipse;html=1;shape=endState;fillColor=strokeColor;" parent="1" vertex="1">
          <mxGeometry x="2559" y="3055.6190476190477" width="30" height="30" as="geometry" />
        </mxCell>
        <mxCell id="PkVs66nJgXnaVokK2lV5-24" style="edgeStyle=orthogonalEdgeStyle;rounded=0;orthogonalLoop=1;jettySize=auto;html=1;exitX=1;exitY=0.5;exitDx=0;exitDy=0;" parent="1" source="PkVs66nJgXnaVokK2lV5-7" target="PkVs66nJgXnaVokK2lV5-25" edge="1">
          <mxGeometry relative="1" as="geometry">
            <mxPoint x="2570" y="3070.6190476190477" as="targetPoint" />
          </mxGeometry>
        </mxCell>
        <mxCell id="jrppD0yALq27UF58hP36-53" style="edgeStyle=orthogonalEdgeStyle;rounded=0;orthogonalLoop=1;jettySize=auto;html=1;exitX=0.5;exitY=1;exitDx=0;exitDy=0;entryX=0.5;entryY=0;entryDx=0;entryDy=0;" edge="1" parent="1" source="Ye0qZoPVvqmFJT9ewQcx-39" target="Ye0qZoPVvqmFJT9ewQcx-45">
          <mxGeometry relative="1" as="geometry" />
        </mxCell>
      </root>
    </mxGraphModel>
  </diagram>
</mxfile>
